<?xml version="1.0" standalone="no"?>
<!DOCTYPE svg PUBLIC "-//W3C//DTD SVG 20010904//EN"
 "http://www.w3.org/TR/2001/REC-SVG-20010904/DTD/svg10.dtd">
<svg version="1.0" xmlns="http://www.w3.org/2000/svg"
 width="534.000000pt" height="185.000000pt" viewBox="0 0 534.000000 185.000000"
 preserveAspectRatio="xMidYMid meet">

<g transform="translate(0.000000,185.000000) scale(0.100000,-0.100000)"
fill="#000000" stroke="none">
<path d="M1847 1550 c-152 -54 -259 -175 -298 -335 -19 -81 -14 -239 10 -316
26 -83 85 -175 143 -222 182 -150 478 -137 642 28 94 93 136 208 136 371 0
213 -88 368 -259 452 -72 36 -79 37 -195 40 -101 2 -131 -1 -179 -18z m268
-192 c42 -23 70 -55 97 -113 20 -44 23 -66 23 -175 0 -116 -2 -129 -27 -176
-37 -70 -85 -110 -151 -124 -105 -24 -208 32 -252 136 -54 130 -32 324 49 412
60 67 177 84 261 40z" style="fill: red;"/>
<path d="M200 1075 l0 -485 120 0 120 0 0 485 0 485 -120 0 -120 0 0 -485z"/>
<path d="M590 1075 l0 -486 118 3 117 3 0 298 c0 164 3 293 8 285 4 -7 83
-141 175 -298 l168 -285 122 -3 122 -3 0 486 0 486 -117 -3 -118 -3 0 -297 c0
-164 0 -298 -1 -298 -1 0 -29 48 -62 108 -34 59 -112 193 -174 297 l-113 190
-123 3 -122 3 0 -486z"/>
<path d="M2490 1548 c0 -7 71 -225 157 -485 l157 -473 123 0 122 0 156 474
c85 260 155 478 155 485 0 7 -36 11 -118 11 l-117 0 -88 -297 c-48 -164 -90
-313 -93 -330 -9 -47 -19 -41 -33 20 -6 28 -49 176 -94 327 l-83 275 -122 3
c-92 2 -122 0 -122 -10z"/>
<path d="M3452 1081 c-95 -263 -172 -481 -172 -485 0 -3 53 -6 118 -6 l118 0
29 90 29 90 167 0 167 0 29 -87 30 -88 121 -3 c95 -2 122 0 122 10 0 11 -297
845 -331 931 l-11 27 -122 0 -122 0 -172 -479z m394 -118 c6 -23 6 -23 -106
-23 -89 0 -111 3 -107 13 3 8 24 74 47 148 23 74 46 149 52 168 10 33 12 28
59 -125 27 -88 51 -169 55 -181z"/>
<path d="M4310 1555 c0 -3 0 -220 0 -482 l0 -478 117 0 118 0 3 180 2 180 108
-5 c62 -3 117 -11 130 -18 36 -21 59 -87 71 -203 6 -58 13 -113 17 -122 5 -15
23 -17 125 -17 115 0 131 4 109 26 -6 6 -15 64 -20 129 -6 65 -15 136 -21 159
-14 53 -52 103 -95 123 l-34 17 50 28 c61 35 98 88 109 157 25 162 -64 283
-237 320 -52 11 -552 16 -552 6z m490 -203 c22 -10 42 -32 54 -56 17 -36 18
-43 5 -79 -24 -69 -52 -81 -190 -86 l-119 -3 0 121 0 121 108 0 c82 0 115 -4
142 -18z"/>
<path d="M257 438 c-8 -24 -24 -67 -36 -95 -11 -29 -17 -53 -12 -53 5 0 14 14
20 30 9 27 14 30 55 30 41 0 45 -2 56 -32 7 -18 14 -28 16 -23 6 14 -60 178
-73 182 -6 2 -18 -15 -26 -39z m62 -70 c1 -5 -15 -8 -34 -8 -40 0 -41 3 -19
56 l17 39 18 -40 c9 -22 18 -43 18 -47z"/>
<path d="M440 385 c0 -57 4 -95 10 -95 6 0 10 18 10 41 l0 40 48 -3 c46 -3 47
-4 50 -38 4 -43 22 -66 22 -28 0 15 -5 39 -10 54 -8 19 -8 30 0 38 15 15 12
52 -6 70 -10 11 -34 16 -70 16 l-54 0 0 -95z m104 72 c11 -8 17 -23 14 -38 -3
-21 -9 -24 -50 -27 l-48 -3 0 40 c0 40 1 41 33 41 18 0 41 -6 51 -13z"/>
<path d="M685 455 c-44 -43 -29 -143 24 -164 34 -13 113 -10 101 4 -5 6 -2 18
6 29 28 39 8 135 -31 150 -35 13 -76 6 -100 -19z m104 -6 c18 -17 21 -29 19
-72 -3 -48 -5 -52 -27 -49 -20 2 -22 0 -11 -13 21 -26 -52 -20 -76 6 -29 32
-26 105 5 130 30 25 62 24 90 -2z"/>
<path d="M910 400 c0 -91 17 -120 70 -120 54 0 70 29 70 122 0 106 -18 92 -22
-17 l-3 -80 -39 -3 c-24 -2 -42 2 -47 10 -5 7 -9 48 -9 91 0 44 -4 77 -10 77
-6 0 -10 -33 -10 -80z"/>
<path d="M1140 385 c0 -57 4 -95 10 -95 6 0 10 38 10 95 0 57 -4 95 -10 95 -6
0 -10 -38 -10 -95z"/>
<path d="M1260 471 l35 -6 3 -87 c4 -116 22 -114 22 1 l0 90 33 4 c17 2 -4 4
-48 4 -51 0 -67 -2 -45 -6z"/>
<path d="M1462 383 l3 -98 63 -3 c36 -2 62 1 62 7 0 6 -26 11 -57 13 l-58 3 0
35 0 35 55 6 55 5 -55 5 -55 4 0 35 0 35 60 6 60 6 -68 1 -68 2 3 -97z"/>
<path d="M1690 471 l35 -6 5 -95 4 -95 6 95 5 95 35 6 c23 4 6 6 -45 6 -51 0
-68 -2 -45 -6z"/>
<path d="M1886 467 c-4 -9 -6 -47 -4 -84 3 -54 8 -69 27 -84 28 -23 59 -24 89
-3 20 14 22 22 20 102 l-2 87 -3 -80 c-2 -43 -9 -85 -15 -92 -14 -17 -72 -17
-86 0 -6 7 -12 49 -14 92 -2 54 -6 74 -12 62z"/>
<path d="M2110 385 c0 -57 4 -95 10 -95 6 0 10 18 10 41 l0 40 48 -3 c46 -3
47 -4 50 -38 2 -19 8 -39 13 -44 13 -14 12 51 -2 76 -8 14 -8 23 0 31 16 16
13 53 -5 71 -10 11 -34 16 -70 16 l-54 0 0 -95z m97 79 c24 -7 35 -34 21 -58
-6 -11 -23 -16 -53 -16 l-45 0 0 40 c0 37 2 40 28 40 15 0 37 -3 49 -6z"/>
<path d="M2359 385 c-20 -52 -33 -95 -29 -95 4 0 13 14 20 30 11 27 17 30 55
30 39 0 44 -3 55 -32 7 -18 14 -28 16 -23 6 14 -59 178 -71 182 -6 1 -26 -40
-46 -92z m75 -3 c7 -20 4 -22 -28 -22 -20 0 -36 1 -36 3 0 2 7 25 16 51 l17
49 12 -30 c7 -16 16 -39 19 -51z"/>
<path d="M2682 383 l3 -98 63 -3 c38 -2 62 1 62 8 0 6 -23 10 -55 10 l-55 0 0
39 0 40 53 4 52 3 -52 2 -53 2 0 40 0 39 58 4 57 3 -68 2 -68 2 3 -97z"/>
<path d="M3020 386 c0 -57 4 -97 11 -101 6 -4 30 -4 55 0 56 8 79 40 78 104
-1 60 -36 91 -100 91 l-44 0 0 -94z m113 53 c9 -12 17 -38 17 -60 0 -52 -27
-79 -80 -79 l-40 0 0 78 c0 43 3 82 8 86 13 14 77 -3 95 -25z"/>
<path d="M3252 383 l3 -98 54 -3 c30 -2 59 2 64 7 8 8 -8 11 -52 11 l-62 0 3
38 3 37 55 6 55 5 -55 5 -55 4 0 35 0 35 60 6 60 6 -68 1 -68 2 3 -97z"/>
<path d="M3478 469 c-10 -5 -18 -21 -18 -34 0 -28 28 -50 77 -60 61 -13 51
-75 -12 -75 -25 0 -39 7 -54 28 -15 20 -20 23 -21 10 0 -21 46 -58 74 -58 39
0 67 28 64 63 -3 28 -9 34 -48 47 -74 25 -83 35 -54 64 22 23 60 20 78 -6 9
-12 18 -20 21 -17 2 3 -2 15 -11 27 -16 24 -65 29 -96 11z"/>
<path d="M3684 380 c0 -58 1 -81 3 -52 2 28 2 76 0 105 -2 28 -3 5 -3 -53z"/>
<path d="M3805 455 c-20 -19 -25 -34 -25 -72 0 -27 7 -58 15 -70 21 -30 78
-40 109 -19 18 12 26 12 29 3 3 -6 6 9 6 36 l1 47 -37 -2 c-37 -1 -37 -1 -5
-5 59 -8 28 -73 -36 -73 -51 0 -79 43 -68 106 12 63 78 84 121 38 14 -15 25
-22 25 -15 0 6 -9 20 -20 31 -29 29 -84 27 -115 -5z"/>
<path d="M4030 385 c0 -114 18 -129 22 -18 l3 77 54 -83 c63 -96 69 -93 70 31
1 106 -17 111 -21 6 l-3 -83 -53 83 c-29 45 -57 82 -62 82 -6 0 -10 -41 -10
-95z"/>
<path d="M4392 478 c-2 -5 -3 -50 -3 -100 l-1 -93 56 -3 c34 -2 56 1 56 8 0 5
-22 10 -50 10 l-49 0 -4 93 c-1 50 -4 89 -5 85z"/>
<path d="M4570 471 l35 -6 5 -95 4 -95 6 95 5 95 35 6 c23 4 6 6 -45 6 -51 0
-68 -2 -45 -6z"/>
<path d="M4770 381 l0 -100 50 4 c59 4 75 14 90 61 25 75 -18 134 -96 134
l-44 0 0 -99z m113 58 c9 -12 17 -38 17 -60 0 -52 -27 -79 -80 -79 l-40 0 0
78 c0 43 3 82 8 86 13 14 77 -3 95 -25z"/>
<path d="M5047 473 c-16 -26 -68 -175 -63 -180 3 -4 11 8 17 25 10 29 15 32
54 32 38 0 44 -3 55 -30 7 -16 16 -30 20 -30 5 0 -8 43 -28 95 -35 90 -45 105
-55 88z m42 -100 c1 -8 -12 -13 -35 -13 -25 0 -35 4 -31 13 2 6 10 29 18 50
l14 39 17 -39 c9 -21 17 -44 17 -50z"/>
</g>
</svg>
