<?xml version="1.0" standalone="no"?>
<!DOCTYPE svg PUBLIC "-//W3C//DTD SVG 20010904//EN"
 "http://www.w3.org/TR/2001/REC-SVG-20010904/DTD/svg10.dtd">
<svg version="1.0" xmlns="http://www.w3.org/2000/svg"
 width="512.000000pt" height="512.000000pt" viewBox="0 0 512.000000 512.000000"
 preserveAspectRatio="xMidYMid meet">

<g transform="translate(0.000000,512.000000) scale(0.100000,-0.100000)"
fill="#ced4da" stroke="none">
<path d="M3770 5084 c-17 -15 -47 -59 -67 -98 -54 -107 -88 -152 -187 -249
l-91 -88 0 -59 0 -60 91 -87 c91 -87 152 -169 198 -267 35 -75 65 -99 128
-103 76 -6 108 17 157 114 53 106 114 187 199 262 125 111 123 170 -7 289 -81
74 -145 159 -200 270 -38 75 -75 102 -143 102 -36 0 -54 -6 -78 -26z m270
-406 l85 -88 -85 -88 c-54 -56 -104 -120 -137 -176 l-51 -89 -23 44 c-40 80
-102 163 -174 236 l-72 72 81 84 c51 52 101 117 135 175 l54 92 51 -87 c31
-53 84 -121 136 -175z"/>
<path d="M4678 4404 c-16 -8 -40 -38 -54 -67 -49 -96 -91 -154 -173 -234 -76
-75 -81 -83 -81 -122 0 -56 7 -67 103 -163 61 -61 95 -105 127 -167 53 -99 84
-126 144 -125 59 1 92 27 131 103 43 86 111 174 179 234 58 50 75 90 62 143
-4 14 -46 65 -94 113 -68 67 -98 106 -135 177 -31 58 -58 96 -76 107 -35 21
-97 21 -133 1z m206 -361 l65 -70 -55 -57 c-30 -31 -77 -90 -103 -131 l-48
-75 -46 73 c-25 39 -73 99 -106 132 l-61 60 26 19 c35 25 139 157 165 208 l21
41 38 -65 c22 -35 68 -96 104 -135z"/>
<path d="M617 3838 c-21 -17 -224 -357 -232 -391 -6 -21 -1 -33 24 -58 26 -25
37 -30 59 -24 40 10 43 14 126 156 l76 129 262 -302 c144 -167 299 -346 345
-398 l82 -95 -571 -3 c-314 -1 -573 0 -575 2 -3 2 30 62 71 133 43 74 76 141
76 156 0 59 -85 91 -125 47 -34 -37 -235 -394 -235 -417 0 -14 31 -59 78 -115
276 -329 2228 -2616 2244 -2630 26 -23 83 -23 106 0 67 68 1039 1219 1045
1238 18 50 -49 108 -97 86 -13 -6 -200 -218 -416 -471 -216 -254 -394 -460
-396 -459 -4 5 707 2262 715 2271 4 4 282 6 617 5 l611 -3 -474 -555 c-260
-305 -476 -565 -480 -578 -13 -51 38 -101 90 -88 16 4 174 181 478 538 645
757 629 737 629 761 0 25 -592 1045 -618 1065 -12 9 -379 12 -1757 12 -1377 0
-1745 -3 -1758 -12z m1515 -230 c-43 -51 -197 -232 -341 -403 -145 -170 -266
-308 -269 -306 -4 2 -155 176 -336 385 -181 210 -336 389 -344 399 -14 16 19
17 677 17 l693 0 -80 -92z m1771 70 c-11 -13 -168 -194 -349 -403 -180 -209
-329 -380 -331 -380 -1 0 -150 173 -329 385 -179 212 -333 393 -341 403 -15
16 18 17 677 17 l693 0 -20 -22z m-1180 -428 l335 -395 -338 -3 c-186 -1 -494
-1 -684 0 l-345 3 341 403 c188 221 345 399 349 395 4 -4 158 -186 342 -403z
m1588 -1 c126 -215 228 -394 226 -396 -2 -2 -261 -2 -575 -1 l-572 3 343 396
c188 218 343 395 345 394 2 -2 107 -180 233 -396z m-2505 -1614 c184 -583 345
-1096 358 -1139 l25 -79 -24 24 c-12 13 -443 517 -955 1119 -513 602 -942
1105 -953 1118 l-21 22 619 -2 618 -3 333 -1060z m1311 1051 c-3 -7 -168 -530
-366 -1162 -199 -632 -365 -1158 -370 -1169 -6 -16 -18 12 -54 125 -35 110
-664 2109 -693 2203 -5 16 35 17 741 17 631 0 746 -2 742 -14z"/>
</g>
</svg>
