<?xml version="1.0" standalone="no"?>
<!DOCTYPE svg PUBLIC "-//W3C//DTD SVG 20010904//EN"
 "http://www.w3.org/TR/2001/REC-SVG-20010904/DTD/svg10.dtd">
<svg version="1.0" xmlns="http://www.w3.org/2000/svg"
 width="512.000000pt" height="512.000000pt" viewBox="0 0 512.000000 512.000000"
 preserveAspectRatio="xMidYMid meet">

<g transform="translate(0.000000,512.000000) scale(0.100000,-0.100000)"
fill="#ced4da" stroke="none">
<path d="M3720 4990 c-124 -73 -236 -142 -250 -156 -40 -39 -33 -83 30 -192
43 -76 51 -96 39 -103 -8 -5 -265 -154 -572 -332 -575 -331 -587 -340 -587
-399 0 -13 14 -47 30 -77 17 -30 27 -58 23 -62 -5 -3 -334 -194 -733 -424
-399 -229 -737 -430 -752 -446 -36 -38 -35 -70 2 -138 21 -37 27 -58 20 -65
-5 -5 -63 -40 -127 -77 l-118 -68 -19 32 c-10 18 -25 43 -33 55 -18 30 -77 55
-106 46 -32 -10 -368 -203 -394 -227 -28 -25 -39 -77 -23 -108 72 -141 419
-725 438 -737 46 -30 79 -19 272 92 102 59 193 116 203 128 32 38 32 65 -3
134 -18 35 -31 66 -29 68 24 20 254 145 257 139 14 -41 68 -107 98 -119 46
-19 47 -19 439 208 680 393 866 500 869 497 2 -2 -324 -571 -725 -1264 -555
-961 -728 -1268 -729 -1293 0 -44 14 -68 50 -87 41 -21 75 -19 105 8 14 12
156 247 315 522 l288 500 980 3 980 2 283 -492 c156 -271 298 -508 315 -525
35 -37 68 -42 113 -18 34 17 56 64 48 103 -4 19 -1090 1913 -1433 2497 l-24
42 31 39 c18 21 40 57 50 80 18 39 37 52 463 298 244 141 446 256 449 256 3 0
26 -37 52 -82 26 -46 57 -93 68 -105 25 -28 77 -39 108 -23 111 57 449 258
467 277 34 37 29 83 -19 169 l-40 74 30 79 c87 225 76 473 -29 698 -49 104
-88 161 -169 247 -142 148 -314 238 -509 266 l-78 12 -39 69 c-48 85 -63 99
-112 105 -34 4 -60 -8 -263 -126z m616 -796 c216 -373 393 -684 394 -690 0
-11 -248 -160 -254 -152 -28 35 -796 1383 -790 1386 5 1 61 34 124 72 63 37
119 67 124 66 5 -1 186 -308 402 -682z m55 469 c130 -65 247 -180 307 -303 60
-121 76 -193 75 -325 -2 -206 12 -218 -248 232 -126 219 -235 408 -243 421
-22 34 2 29 109 -25z m-490 -715 c134 -232 245 -427 247 -433 1 -5 -174 -112
-390 -237 l-393 -227 -18 50 c-27 72 -113 161 -195 201 -62 31 -74 33 -175 34
l-109 1 -126 218 c-99 171 -122 219 -111 226 128 76 1016 588 1020 588 4 1
116 -189 250 -421z m-1280 -581 l76 -133 -39 -54 c-56 -78 -82 -173 -75 -269
l6 -77 -558 -322 c-307 -177 -563 -322 -569 -322 -6 0 -76 114 -156 252 -113
197 -143 255 -133 264 6 6 221 132 477 279 256 148 560 323 675 391 116 67
212 123 215 123 3 0 39 -59 81 -132z m475 -263 c102 -82 109 -222 15 -307
-156 -141 -400 38 -312 228 37 80 99 116 193 112 57 -2 72 -7 104 -33z m-116
-557 c36 0 74 3 85 7 18 5 62 -66 397 -647 l377 -652 -429 -3 c-237 -1 -624
-1 -860 0 l-430 3 376 653 c341 589 379 652 398 646 12 -4 50 -7 86 -7z
m-1845 -208 c26 -45 43 -85 38 -89 -4 -4 -61 -38 -127 -76 -135 -78 -118 -81
-183 34 -23 43 -32 67 -25 74 15 15 225 136 239 137 6 1 32 -35 58 -80z m-446
-227 c68 -118 132 -229 142 -247 l20 -34 -78 -45 c-43 -25 -83 -46 -89 -46
-11 0 -290 472 -296 501 -2 7 33 34 77 60 61 36 83 45 91 36 6 -7 66 -108 133
-225z"/>
</g>
</svg>
